<?xml version="1.0" standalone="no"?>
<!DOCTYPE svg PUBLIC "-//W3C//DTD SVG 20010904//EN"
 "http://www.w3.org/TR/2001/REC-SVG-20010904/DTD/svg10.dtd">
<svg version="1.0" xmlns="http://www.w3.org/2000/svg"
 width="400.000000pt" height="400.000000pt" viewBox="0 0 400.000000 400.000000"
 preserveAspectRatio="xMidYMid meet">
<metadata>
Created by potrace 1.14, written by Peter Selinger 2001-2017
</metadata>
<g transform="translate(0.000000,400.000000) scale(0.100000,-0.100000)"
fill="#000000" stroke="none">
<path d="M0 2762 l0 -1140 31 -6 c44 -8 101 9 127 39 12 14 22 29 22 33 0 19
-26 62 -40 66 -11 3 -11 4 3 5 21 1 22 10 0 26 -19 14 -10 35 16 35 10 0 34
-6 52 -14 19 -7 56 -11 84 -9 78 6 87 5 145 -5 30 -5 62 -6 70 -2 8 4 61 6
118 5 113 -3 182 3 182 16 0 5 -7 9 -15 9 -19 0 -19 14 0 30 13 11 14 10 9 -4
-3 -9 -1 -16 5 -16 6 0 11 4 11 10 0 5 20 9 45 8 36 0 45 -4 45 -18 0 -32 -12
-50 -33 -50 -11 0 -17 -3 -14 -7 4 -4 -7 -13 -25 -21 -18 -8 -27 -16 -20 -19
6 -3 12 -13 12 -23 0 -9 7 -23 15 -30 8 -7 13 -16 10 -20 -2 -4 15 -6 39 -6
56 1 73 -15 93 -85 9 -32 20 -56 25 -53 16 10 8 -52 -12 -84 -24 -39 -19 -52
21 -52 16 0 29 -5 29 -11 0 -5 -4 -7 -10 -4 -5 3 -10 2 -10 -3 0 -7 40 -23 90
-36 27 -7 210 -128 248 -165 136 -130 240 -174 502 -211 76 -11 412 7 421 22
4 7 8 6 10 -1 3 -7 14 -8 34 -2 29 9 29 9 5 11 -22 2 -21 3 9 12 23 6 37 6 44
-1 13 -13 146 -13 202 -1 34 8 31 9 -25 5 -62 -4 -64 -4 -35 10 24 11 26 14
10 15 -19 1 -19 2 -1 9 17 6 13 11 -25 29 -25 12 -53 22 -62 22 -25 0 -30 18
-8 29 27 15 31 14 31 -5 0 -14 7 -16 45 -11 26 4 47 2 51 -4 3 -6 13 -8 21 -5
9 4 22 1 29 -5 8 -6 14 -7 14 -2 0 5 10 9 23 9 15 -1 23 5 25 21 3 22 32 41
32 21 0 -7 5 -6 15 2 8 6 19 9 25 5 15 -9 -18 -68 -35 -62 -7 3 -23 -6 -34
-20 l-22 -25 58 7 c42 5 54 3 43 -4 -13 -10 -13 -11 0 -12 8 -1 -1 -5 -20 -9
-30 -6 -26 -7 25 -8 33 0 52 2 43 5 -23 6 -23 25 1 54 16 20 21 21 35 10 9 -8
14 -21 11 -30 -11 -36 31 -42 179 -26 48 6 67 5 63 -2 -7 -10 -66 -16 -312
-29 -60 -3 -145 -9 -188 -14 -43 -5 -180 -15 -305 -22 -575 -33 -727 0 -942
201 -75 70 -166 124 -300 177 -52 20 -131 59 -176 85 -83 50 -114 60 -114 35
0 -15 70 -85 125 -127 17 -12 35 -27 40 -32 15 -15 -37 14 -64 34 -27 22 -83
27 -63 7 7 -7 12 -22 12 -35 0 -20 -5 -23 -35 -23 -21 0 -35 5 -35 13 -1 7 -7
4 -15 -7 -11 -14 -18 -16 -28 -8 -10 9 -17 7 -30 -8 -20 -24 -55 -26 -63 -5
-4 8 -17 15 -30 15 -29 0 -31 11 -4 28 27 17 25 41 -5 52 -31 12 -82 3 -116
-21 -16 -11 -30 -14 -39 -9 -8 5 -18 6 -22 4 -12 -7 -10 -122 2 -129 21 -13 9
-24 -22 -21 -21 3 -41 -3 -60 -17 -27 -20 -28 -20 -49 -1 -13 12 -36 19 -65
19 -39 0 -44 3 -44 23 0 23 -14 30 -25 12 -3 -5 -1 -10 4 -10 6 0 11 -4 11
-10 0 -5 -7 -10 -15 -10 -8 0 -15 6 -15 14 0 8 -15 20 -34 27 -36 13 -39 39
-5 39 10 0 19 7 19 15 0 10 -7 15 -17 13 -12 -2 -19 5 -21 20 -4 28 -27 39
-47 22 -12 -10 -15 -39 -15 -136 0 -132 3 -139 51 -114 27 15 95 -5 124 -36
14 -15 26 -21 30 -14 10 16 43 12 54 -7 5 -10 12 -15 16 -11 4 3 20 1 37 -7
39 -16 152 -9 194 12 26 13 31 21 29 47 -3 32 -45 69 -70 60 -6 -3 -18 2 -25
11 -12 14 -11 16 11 11 13 -3 44 -7 69 -10 25 -2 65 -11 89 -20 24 -9 62 -16
85 -16 22 0 90 -9 151 -20 120 -22 134 -19 139 34 3 24 29 55 48 56 4 0 18 -4
32 -10 17 -6 26 -6 26 0 0 14 27 13 36 -1 3 -6 0 -15 -7 -20 -7 -4 -10 -11 -6
-15 4 -4 0 -15 -9 -25 -10 -11 -12 -19 -4 -24 5 -3 8 -11 4 -16 -7 -13 15 -41
27 -33 15 9 10 -40 -6 -63 -13 -19 -20 -21 -41 -13 -37 15 -42 12 -15 -10 18
-16 20 -20 7 -20 -10 0 -14 -4 -11 -10 8 -13 -16 -13 -35 1 -11 7 -12 12 -3
15 7 3 10 11 7 18 -7 19 -95 11 -111 -10 -7 -10 -13 -21 -13 -25 0 -14 39 -20
60 -9 12 7 24 9 28 6 3 -3 0 -6 -7 -6 -7 0 -9 -5 -6 -10 4 -6 -4 -19 -17 -30
-23 -18 -23 -18 -28 1 -3 11 -9 21 -15 22 -16 3 -15 -115 1 -138 8 -11 14 -31
14 -44 0 -14 10 -35 22 -48 15 -16 21 -34 20 -58 -2 -26 2 -35 19 -40 16 -6
19 -12 14 -33 -5 -22 -4 -24 9 -13 14 12 15 10 9 -19 -4 -24 -3 -31 5 -26 16
10 16 -26 0 -42 -17 -17 -41 -15 -34 3 3 9 0 15 -10 15 -9 0 -14 -7 -12 -18 4
-19 12 -19 201 -8 60 3 113 8 118 12 14 8 0 24 -16 17 -11 -4 -15 2 -15 24 0
16 -6 38 -14 48 -10 14 -11 25 -4 38 7 13 5 28 -7 53 -9 19 -19 51 -22 70 -3
19 -10 37 -14 40 -12 7 -11 41 1 64 8 16 15 17 52 8 123 -27 415 -58 556 -58
114 0 134 -2 139 -16 5 -15 8 -15 17 -2 8 11 41 16 121 21 61 3 142 13 180 21
39 8 111 18 162 22 82 6 93 5 112 -13 12 -11 19 -27 16 -35 -13 -35 12 -63 80
-88 73 -27 90 -40 52 -40 -14 0 -30 -7 -37 -15 -14 -17 -11 -18 43 -15 43 2
49 -14 9 -29 -25 -10 -25 -11 -2 -6 14 2 40 5 58 5 21 0 32 5 32 14 0 11 11
14 42 13 24 -1 43 3 43 8 0 6 4 15 8 22 5 8 -1 11 -20 10 -16 -1 -28 -8 -28
-14 0 -6 -3 -15 -7 -19 -5 -4 -8 -2 -8 3 0 6 -18 14 -40 18 -42 7 -55 25 -19
25 53 0 82 59 43 91 -18 14 -11 78 9 91 19 12 57 9 58 -4 6 -100 9 -125 20
-149 6 -16 15 -29 19 -29 4 0 11 -10 15 -22 5 -17 8 -19 11 -8 5 16 48 40 71
40 8 0 17 -10 22 -23 7 -19 17 -23 61 -25 28 -1 57 1 63 5 7 5 29 8 50 9 20 0
43 6 50 13 9 10 9 12 -3 11 -31 -5 -51 0 -49 13 3 24 -1 37 -12 37 -6 0 -17 7
-25 15 -28 28 -51 18 -66 -27 -19 -56 -40 -63 -36 -12 2 28 9 42 26 50 27 13
29 31 4 25 -15 -3 -15 -1 1 17 17 19 17 20 -25 31 -24 7 -58 13 -76 13 -28 1
-31 3 -17 11 10 5 44 7 76 3 67 -6 81 9 18 19 -29 5 -39 11 -35 21 3 9 -2 14
-14 14 -11 0 -20 6 -20 13 0 16 22 15 64 -2 42 -17 59 -8 51 28 -6 28 -5 29
47 40 29 6 93 21 141 33 86 21 88 22 82 47 -4 14 -20 53 -37 86 -17 33 -36 70
-42 82 -6 13 -14 23 -18 23 -5 0 -8 6 -8 14 0 7 -22 43 -50 80 -55 76 -51 66
-80 196 -20 89 -55 181 -72 188 -5 2 -8 8 -8 13 0 6 5 7 12 3 16 -10 2 53 -16
72 -8 8 -32 35 -52 59 -20 25 -41 45 -46 45 -6 0 -5 -7 2 -15 7 -9 8 -15 2
-15 -5 0 -12 7 -16 15 -3 8 -12 15 -21 15 -9 0 -28 6 -43 13 -22 12 -39 12
-97 1 -61 -11 -76 -10 -117 4 -27 9 -48 20 -48 24 0 4 -7 8 -16 8 -9 0 -22 7
-28 16 -13 18 -33 22 -174 34 -62 5 -119 16 -140 26 -20 10 -67 19 -104 21
-60 3 -68 1 -79 -18 -7 -15 -14 -18 -18 -10 -5 7 -41 12 -100 12 -71 1 -96 -2
-110 -15 -10 -9 -29 -16 -44 -16 -14 0 -37 -4 -50 -9 -19 -7 -27 -6 -31 4 -3
9 -17 12 -40 11 -20 -2 -33 0 -31 4 8 13 -34 19 -68 9 -46 -12 -104 -21 -171
-25 -32 -2 -64 -9 -71 -14 -9 -8 -14 -8 -17 0 -2 6 -11 3 -23 -8 -21 -19 -45
-19 -45 0 0 6 7 8 15 4 9 -3 15 0 15 9 0 8 7 15 15 15 8 0 15 5 15 10 0 35
-71 -25 -91 -77 -8 -21 -29 -33 -29 -15 0 15 72 114 118 160 84 85 216 165
322 195 131 37 254 49 451 45 126 -2 184 0 170 6 -20 9 -19 10 16 23 49 16 53
16 53 -3 0 -13 3 -14 13 -5 11 8 19 5 35 -14 l22 -25 -23 -1 c-21 0 -21 -1 -2
-9 11 -4 73 -20 139 -35 127 -29 228 -73 312 -135 68 -51 101 -85 169 -175 48
-64 60 -75 78 -69 12 4 24 10 27 14 3 4 15 10 28 14 27 9 29 42 2 49 -13 3
-18 11 -14 20 3 8 0 18 -6 22 -12 7 83 101 113 111 12 4 17 14 15 35 -2 24 -9
34 -36 45 -19 8 -46 14 -61 14 -37 0 -71 26 -71 55 0 30 58 81 102 90 54 10
88 27 88 42 0 13 -22 57 -58 116 -11 18 -37 36 -72 50 -53 21 -54 23 -58 65
-3 31 0 44 12 48 30 12 18 50 -24 79 -37 25 -44 38 -43 73 1 6 -3 12 -8 12 -5
0 -9 9 -9 20 0 11 -5 20 -10 20 -6 0 -16 12 -23 28 -15 34 -32 52 -49 52 -7 0
-28 13 -46 29 -30 28 -37 49 -34 94 2 19 -24 23 -31 5 -3 -8 -6 -6 -6 5 -1 9
-6 17 -12 17 -6 0 -9 6 -7 12 7 19 -82 84 -124 92 -21 4 -44 16 -51 26 -10 14
-33 22 -83 29 -70 10 -150 41 -138 54 4 4 3 7 -2 8 -5 0 -18 3 -29 5 -11 2
-37 7 -58 10 -21 3 -60 13 -85 23 -46 18 -48 18 -82 0 -19 -11 -42 -19 -51
-19 -8 0 -26 -11 -39 -25 -21 -23 -29 -25 -78 -20 -29 3 -60 12 -69 20 -8 8
-29 16 -46 17 -18 0 -36 2 -42 3 -5 2 -17 3 -25 4 -8 1 -22 5 -30 11 -12 8
-12 11 2 27 11 12 14 24 9 32 -11 17 -117 24 -191 12 -36 -6 -59 -5 -67 1 -10
8 -13 4 -14 -13 l0 -24 -10 25 -10 25 -20 -24 c-10 -13 -19 -19 -19 -14 0 8
-40 10 -100 4 -13 -1 -13 -2 0 -11 12 -8 10 -10 -10 -11 -36 -2 -55 2 -58 11
-2 5 -16 4 -33 -2 -16 -5 -36 -7 -45 -4 -9 3 -29 -2 -45 -11 l-29 -17 -30 36
c-17 21 -49 47 -71 60 -22 12 -42 32 -45 44 -8 32 -41 42 -109 33 -48 -6 -70
-4 -119 12 -59 20 -104 21 -246 5 -43 -4 -70 9 -70 34 0 17 -7 20 -49 20 -42
0 -55 5 -84 33 -19 17 -36 37 -38 43 -6 16 -85 84 -98 84 -6 0 -11 18 -11 44
0 27 -6 51 -15 60 -15 15 -81 47 -124 61 l-21 6 0 -1139z m1044 544 c14 -19
26 -41 26 -49 0 -8 7 -20 15 -27 8 -7 15 -18 15 -24 0 -16 60 -61 83 -62 9 -1
17 2 17 5 0 4 16 24 35 44 36 38 75 49 75 22 0 -8 5 -15 10 -15 6 0 10 -7 10
-15 0 -8 -4 -15 -10 -15 -19 0 -10 -18 13 -24 20 -6 21 -7 5 -20 -16 -12 -16
-14 2 -34 11 -12 20 -28 20 -36 0 -11 8 -15 25 -14 22 2 23 4 8 20 -14 16 -14
20 -1 40 15 23 34 86 30 101 -3 11 50 29 59 20 5 -5 2 -27 -6 -49 -8 -23 -15
-64 -16 -93 -2 -32 -7 -50 -13 -48 -26 10 -48 -59 -24 -75 10 -6 10 -10 -2
-18 -25 -17 -55 -8 -53 16 1 13 -11 33 -32 53 -37 33 -54 38 -73 19 -14 -14
-16 -68 -2 -68 14 0 25 -73 11 -78 -6 -2 -11 -10 -11 -17 0 -19 -24 -25 -62
-15 -18 4 -54 11 -80 15 -39 5 -48 3 -48 -9 0 -24 -40 -29 -187 -24 -137 5
-160 13 -148 46 3 9 -1 11 -15 7 -14 -4 -20 -2 -20 8 0 8 -9 22 -21 33 -16 15
-24 16 -39 6 -11 -6 -21 -8 -24 -3 -8 12 -56 20 -56 10 0 -5 -4 -9 -10 -9 -5
0 -10 7 -10 15 0 8 -7 15 -15 15 -11 0 -15 12 -15 43 0 33 -7 48 -30 71 -17
16 -30 38 -30 48 0 10 -11 24 -25 30 -14 6 -25 17 -25 25 0 7 -5 13 -11 13 -6
0 -3 7 5 15 11 12 31 15 73 13 50 -3 59 -7 70 -28 7 -14 18 -29 25 -35 8 -5
15 -26 16 -44 3 -42 7 -47 26 -32 21 17 31 -5 12 -25 -20 -19 -20 -24 0 -24 9
0 18 9 21 20 3 11 14 20 24 20 20 0 26 24 9 35 -17 11 -11 35 9 35 10 0 35
-11 56 -25 35 -24 39 -25 61 -11 12 9 39 51 60 93 63 136 69 143 119 143 37 0
46 -5 69 -34z m656 -176 c-6 -11 -13 -20 -15 -20 -3 0 -5 9 -5 20 0 11 7 20
15 20 13 0 14 -4 5 -20z m-70 -69 c0 -10 -7 -21 -15 -25 -8 -3 -15 -11 -15
-19 0 -21 -48 -19 -60 3 -9 18 -8 20 15 20 14 0 30 9 37 20 16 25 38 26 38 1z
m330 -135 c0 -8 -9 -18 -20 -21 -11 -3 -20 -11 -20 -16 0 -5 -7 -9 -15 -9 -8
0 -15 -7 -15 -15 0 -17 -18 -19 -39 -6 -12 7 -10 14 8 38 31 38 101 59 101 29z
m-450 -45 c5 -11 10 -22 10 -25 0 -11 -26 -6 -46 9 -16 13 -17 16 -4 25 21 14
28 13 40 -9z m-20 -51 c0 -5 -4 -10 -10 -10 -5 0 -10 5 -10 10 0 6 5 10 10 10
6 0 10 -4 10 -10z m625 -42 c-9 -47 -9 -69 1 -168 5 -58 3 -68 -15 -84 -21
-19 -21 -19 -22 0 -1 10 -1 24 0 29 0 6 -9 15 -22 20 -17 8 -23 20 -25 57 -3
40 0 49 19 59 l22 12 -23 12 c-38 20 -34 47 13 77 23 15 46 28 51 28 5 0 5
-19 1 -42z m-350 12 c-3 -5 -16 -10 -28 -9 -20 1 -20 2 3 9 14 4 26 8 28 9 2
1 0 -3 -3 -9z m-913 -20 c5 0 3 -7 -6 -15 -17 -17 -32 -19 -41 -5 -9 15 5 32
22 26 8 -3 19 -6 25 -6z m-77 -50 c3 -5 -1 -10 -9 -10 -9 0 -16 5 -16 10 0 6
4 10 9 10 6 0 13 -4 16 -10z m125 1 c0 -6 -4 -13 -10 -16 -5 -3 -10 1 -10 9 0
9 5 16 10 16 6 0 10 -4 10 -9z m1434 -147 c4 -9 4 -19 1 -22 -6 -6 -35 18 -35
29 0 16 28 10 34 -7z m-1954 -453 c0 -15 -30 -41 -48 -41 -14 0 -15 -2 -3 -9
12 -8 9 -11 -13 -17 -42 -10 -55 10 -26 41 12 13 27 22 31 19 5 -3 9 0 9 5 0
6 11 11 25 11 14 0 25 -4 25 -9z m1560 -161 c0 -5 -4 -10 -10 -10 -5 0 -10 5
-10 10 0 6 5 10 10 10 6 0 10 -4 10 -10z m-730 -115 c-7 -9 -15 -13 -17 -11
-7 7 7 26 19 26 6 0 6 -6 -2 -15z m282 -250 c20 -45 -31 -123 -71 -107 -13 5
-11 7 9 12 17 4 24 12 22 24 -2 10 4 28 12 41 20 30 20 35 0 35 -8 0 -12 5 -9
10 10 17 25 11 37 -15z m-972 -340 c24 -14 24 -14 -22 -15 -44 0 -65 9 -51 24
11 10 47 6 73 -9z m335 -5 c3 -5 -1 -10 -9 -10 -9 0 -16 5 -16 10 0 6 4 10 9
10 6 0 13 -4 16 -10z m-68 -16 c-3 -3 -12 -4 -19 -1 -8 3 -5 6 6 6 11 1 17 -2
13 -5z m1103 -24 c0 -5 11 -10 25 -10 13 0 37 -13 54 -29 l29 -29 -35 -5 c-46
-8 -56 -1 -48 31 6 25 6 25 -49 19 -53 -5 -54 -5 -38 14 17 20 62 26 62 9z
m171 -23 c-8 -8 -11 -7 -11 4 0 20 13 34 18 19 3 -7 -1 -17 -7 -23z m43 14 c3
-5 -1 -11 -9 -15 -9 -3 -15 0 -15 9 0 16 16 20 24 6z m428 -41 c32 0 37 -19
10 -36 -14 -9 -23 -8 -40 6 -12 10 -22 26 -22 36 0 14 3 15 12 6 7 -7 25 -12
40 -12z m-784 -7 c16 -16 16 -16 -1 -10 -10 4 -23 7 -28 7 -5 0 -9 5 -9 10 0
15 20 12 38 -7z m618 -20 c-10 -10 -19 5 -10 18 6 11 8 11 12 0 2 -7 1 -15 -2
-18z m-49 -45 c-3 -8 -6 -5 -6 6 -1 11 2 17 5 13 3 -3 4 -12 1 -19z m51 -49
c9 -1 39 -2 66 -3 38 -1 50 -5 52 -19 1 -9 -2 -15 -7 -11 -5 3 -7 10 -4 15 10
15 -45 10 -61 -6 -9 -8 -27 -14 -42 -14 -27 1 -27 1 3 8 29 7 29 7 -12 14 -34
6 -43 11 -43 28 0 19 1 19 16 5 8 -9 23 -16 32 -17z m-58 12 c0 -17 -12 -41
-21 -41 -5 0 -9 11 -9 25 0 16 6 25 15 25 8 0 15 -4 15 -9z m837 -47 c-3 -3
-12 -4 -19 -1 -8 3 -5 6 6 6 11 1 17 -2 13 -5z m198 -4 c14 -6 5 -9 -35 -9
-30 0 -64 4 -75 9 -14 6 -5 9 35 9 30 0 64 -4 75 -9z m-872 -17 c-13 -2 -35
-2 -50 0 -16 2 -5 4 22 4 28 0 40 -2 28 -4z m-1487 -68 c-23 -17 -36 -19 -36
-6 0 5 10 12 23 14 12 2 24 5 27 5 3 1 -4 -5 -14 -13z m148 -41 c4 -9 4 -19 1
-22 -6 -6 -35 18 -35 29 0 16 28 10 34 -7z m-47 -23 c11 -17 9 -17 -25 -6 -66
22 -67 23 -27 24 29 1 43 -4 52 -18z m-16 -37 c17 -8 28 -18 25 -21 -3 -3 -16
2 -30 10 -13 9 -26 13 -28 8 -3 -10 -22 -14 -52 -12 -15 1 -16 4 -6 16 16 19
53 19 91 -1z m-94 -40 c-3 -3 -12 -4 -19 -1 -8 3 -5 6 6 6 11 1 17 -2 13 -5z
m123 2 c0 -3 -4 -8 -10 -11 -5 -3 -10 -1 -10 4 0 6 5 11 10 11 6 0 10 -2 10
-4z m1940 -36 c0 -5 -9 -10 -19 -10 -11 0 -23 5 -26 10 -4 6 5 10 19 10 14 0
26 -4 26 -10z m-28 -82 c-9 -9 -12 -4 -11 23 0 32 1 33 11 11 8 -17 8 -26 0
-34z m130 0 c-7 -7 -12 -8 -12 -2 0 14 12 26 19 19 2 -3 -1 -11 -7 -17z
m-2032 -220 c0 -5 -4 -8 -10 -8 -5 0 -10 10 -10 23 0 18 2 19 10 7 5 -8 10
-18 10 -22z"/>
<path d="M1472 1570 c-6 -10 -8 -21 -3 -24 5 -3 11 4 14 16 8 29 4 32 -11 8z"/>
<path d="M3880 3341 c-7 -11 -18 -19 -24 -18 -6 1 -13 -14 -16 -33 -3 -23 -8
-31 -13 -22 -5 6 -19 12 -33 12 -14 0 -27 7 -30 15 -5 11 -10 13 -19 5 -7 -6
-20 -8 -28 -4 -11 4 -23 -5 -37 -28 -19 -32 -20 -47 -5 -113 5 -21 4 -26 -3
-16 -8 12 -14 11 -36 -6 -29 -23 -25 -33 13 -33 15 0 31 -8 39 -20 7 -11 23
-20 37 -20 27 0 65 27 65 47 0 7 5 13 11 13 7 0 18 8 25 18 9 11 13 13 14 4 0
-7 5 -10 10 -7 6 3 10 -1 10 -9 0 -9 -4 -16 -10 -16 -5 0 -10 -15 -10 -32 0
-33 0 -33 55 -35 29 -2 56 1 60 6 3 5 14 7 25 4 19 -5 20 0 20 82 0 79 -2 86
-17 80 -10 -4 -34 -9 -55 -12 -31 -5 -36 -3 -35 13 2 22 -32 32 -44 12 -7 -10
-9 -10 -9 3 0 20 20 29 60 29 35 0 99 39 100 61 1 37 -96 52 -120 20z m67 -57
c-3 -3 -12 -4 -19 -1 -8 3 -5 6 6 6 11 1 17 -2 13 -5z"/>
<path d="M3832 2898 c-16 -16 -15 -28 3 -28 8 0 15 9 15 20 0 23 -2 24 -18 8z"/>
<path d="M2310 2310 c-9 -6 -10 -10 -3 -10 6 0 15 5 18 10 8 12 4 12 -15 0z"/>
<path d="M580 1495 c-6 -8 -18 -11 -26 -8 -17 6 -18 -1 -1 -27 10 -17 9 -22
-3 -30 -11 -7 -11 -10 -2 -10 7 0 11 -4 7 -9 -3 -6 4 -15 15 -21 15 -8 20 -8
20 1 0 7 8 9 23 5 12 -4 42 -9 66 -11 24 -2 62 -7 83 -10 25 -4 38 -3 38 4 0
6 -6 11 -13 11 -7 0 -19 9 -27 20 -11 16 -22 19 -55 15 -30 -4 -35 -3 -20 4
19 9 19 10 -2 10 -12 1 -37 16 -57 35 -28 28 -37 32 -46 21z m93 -92 c-7 -2
-21 -2 -30 0 -10 3 -4 5 12 5 17 0 24 -2 18 -5z"/>
<path d="M120 1424 c-26 -18 -50 -43 -50 -54 0 -4 11 -12 25 -18 30 -14 57 -2
76 35 9 18 9 26 -1 38 -16 19 -20 19 -50 -1z"/>
<path d="M624 1315 c3 -8 1 -15 -4 -15 -6 0 -10 -7 -10 -15 0 -17 18 -19 40
-5 10 6 11 10 3 10 -29 0 -10 20 20 21 30 1 31 1 7 9 -42 13 -63 12 -56 -5z"/>
<path d="M560 1039 c0 -5 5 -7 10 -4 6 3 10 8 10 11 0 2 -4 4 -10 4 -5 0 -10
-5 -10 -11z"/>
<path d="M935 1039 c-9 -14 -2 -20 14 -10 8 6 9 11 3 15 -6 3 -14 1 -17 -5z"/>
<path d="M596 1031 c-4 -5 -2 -21 4 -35 11 -29 44 -35 54 -10 12 30 -42 71
-58 45z"/>
<path d="M2608 1033 c7 -3 16 -2 19 1 4 3 -2 6 -13 5 -11 0 -14 -3 -6 -6z"/>
<path d="M2605 1020 l-40 -7 43 -2 c23 0 42 4 42 9 0 6 -1 9 -2 9 -2 -1 -21
-5 -43 -9z"/>
<path d="M930 995 c0 -9 6 -12 15 -9 8 4 15 10 15 15 0 5 -7 9 -15 9 -8 0 -15
-7 -15 -15z"/>
<path d="M1005 1000 c-3 -6 1 -7 9 -4 18 7 21 14 7 14 -6 0 -13 -4 -16 -10z"/>
<path d="M2648 993 c7 -3 16 -2 19 1 4 3 -2 6 -13 5 -11 0 -14 -3 -6 -6z"/>
<path d="M3166 718 c10 -13 20 -25 21 -27 1 -1 7 0 13 4 7 4 4 13 -11 26 -30
26 -46 24 -23 -3z"/>
<path d="M3725 719 c-22 -3 -30 -7 -17 -8 13 0 32 -5 42 -11 13 -7 19 -6 24 5
7 19 -2 22 -49 14z"/>
<path d="M3585 700 c-3 -4 9 -10 26 -14 42 -8 51 -8 45 3 -7 11 -65 20 -71 11z"/>
<path d="M2106 686 c3 -9 11 -16 16 -16 13 0 5 23 -10 28 -7 2 -10 -2 -6 -12z"/>
<path d="M3242 670 c2 -14 12 -28 22 -33 31 -12 32 2 3 31 l-28 27 3 -25z"/>
<path d="M3368 683 c7 -3 16 -2 19 1 4 3 -2 6 -13 5 -11 0 -14 -3 -6 -6z"/>
<path d="M3485 679 c-4 -6 -5 -12 -2 -15 7 -7 37 7 37 17 0 13 -27 11 -35 -2z"/>
<path d="M2066 665 c-9 -26 -7 -32 5 -12 6 10 9 21 6 23 -2 3 -7 -2 -11 -11z"/>
<path d="M1969 644 c-7 -8 -20 -13 -30 -11 -12 3 -15 0 -12 -14 3 -11 9 -19
14 -19 5 0 9 -5 9 -10 0 -6 -11 -8 -27 -4 -22 6 -25 4 -20 -10 4 -10 1 -16 -8
-16 -8 0 -15 -7 -15 -16 0 -8 -4 -12 -10 -9 -5 3 -15 -5 -21 -18 -8 -17 -19
-24 -40 -25 -16 0 -37 -3 -47 -6 -9 -3 -31 -2 -48 3 -26 7 -34 5 -45 -10 -17
-24 -30 -25 -22 -1 6 16 5 16 -14 0 -11 -10 -34 -18 -51 -18 -17 0 -34 -4 -37
-10 -3 -6 11 -8 37 -5 66 6 189 16 229 19 44 4 59 12 59 33 0 11 7 14 27 10
18 -3 32 1 41 11 12 16 13 15 8 -1 -3 -10 -6 -23 -6 -29 0 -6 -7 -8 -15 -4
-21 8 -51 -4 -34 -15 13 -7 59 6 69 20 8 12 103 25 96 13 -4 -7 17 -9 56 -6
89 6 128 13 128 24 0 6 -3 10 -7 10 -5 0 -18 3 -30 6 -16 5 -23 2 -23 -8 0
-12 -9 -13 -45 -8 -26 4 -48 3 -55 -4 -7 -7 -10 -6 -10 1 0 17 19 26 60 28 20
1 42 5 48 9 19 12 14 26 -10 26 -19 0 -20 -2 -8 -11 11 -8 8 -9 -15 -4 -16 4
-31 10 -33 14 -1 4 -19 5 -39 3 l-37 -5 17 26 c17 26 17 26 -14 25 -20 -1 -26
-4 -17 -9 18 -11 -3 -32 -25 -24 -21 9 -30 35 -12 35 16 0 20 16 6 24 -5 3
-15 -1 -22 -10z m131 -84 c0 -5 -4 -10 -10 -10 -5 0 -10 5 -10 10 0 6 5 10 10
10 6 0 10 -4 10 -10z m-120 -40 c0 -5 -2 -10 -4 -10 -3 0 -8 5 -11 10 -3 6 -1
10 4 10 6 0 11 -4 11 -10z"/>
<path d="M2106 635 c-11 -8 -15 -15 -9 -15 19 0 43 12 43 21 0 13 -12 11 -34
-6z"/>
<path d="M1730 610 c0 -5 5 -10 10 -10 6 0 10 5 10 10 0 6 -4 10 -10 10 -5 0
-10 -4 -10 -10z"/>
<path d="M2211 601 c-15 -27 -16 -27 29 -23 25 3 39 9 37 16 -3 6 -10 10 -17
8 -7 -1 -18 2 -25 8 -10 9 -16 6 -24 -9z"/>
<path d="M3528 603 c6 -2 18 -2 25 0 6 3 1 5 -13 5 -14 0 -19 -2 -12 -5z"/>
<path d="M3775 602 c-35 -3 -69 -42 -35 -39 11 1 20 4 20 8 0 14 39 20 59 10
14 -8 27 -7 48 4 l28 15 -35 -4 c-19 -2 -39 -1 -45 3 -5 3 -24 5 -40 3z"/>
<path d="M2590 580 c0 -13 -7 -20 -20 -20 -11 0 -20 -4 -20 -10 0 -12 30 -13
48 -2 7 5 10 16 7 25 -5 11 0 17 17 20 21 4 20 4 -4 6 -22 1 -28 -4 -28 -19z"/>
<path d="M2908 573 c7 -3 16 -2 19 1 4 3 -2 6 -13 5 -11 0 -14 -3 -6 -6z"/>
<path d="M1390 551 c0 -5 5 -13 10 -16 6 -3 10 -2 10 4 0 5 -4 13 -10 16 -5 3
-10 2 -10 -4z"/>
<path d="M2466 553 c-4 -4 -18 -7 -31 -8 -30 0 -34 -19 -5 -23 11 -2 20 1 20
7 0 5 10 11 23 13 13 2 18 6 11 10 -6 4 -14 4 -18 1z"/>
<path d="M3415 550 c-3 -5 -1 -10 4 -10 6 0 11 5 11 10 0 6 -2 10 -4 10 -3 0
-8 -4 -11 -10z"/>
<path d="M2230 546 c0 -2 7 -6 15 -10 8 -3 15 -1 15 4 0 6 -7 10 -15 10 -8 0
-15 -2 -15 -4z"/>
<path d="M2292 538 c-19 -19 -14 -30 8 -18 11 6 24 9 29 6 4 -3 8 1 8 9 0 18
-28 20 -45 3z"/>
<path d="M2860 538 c0 -4 9 -8 20 -8 11 0 20 4 20 9 0 6 -9 9 -20 8 -11 -1
-20 -5 -20 -9z"/>
<path d="M2605 530 c-3 -5 -1 -10 4 -10 6 0 11 5 11 10 0 6 -2 10 -4 10 -3 0
-8 -4 -11 -10z"/>
<path d="M3158 533 c7 -3 16 -2 19 1 4 3 -2 6 -13 5 -11 0 -14 -3 -6 -6z"/>
<path d="M3355 530 c-3 -5 1 -10 10 -10 9 0 13 5 10 10 -3 6 -8 10 -10 10 -2
0 -7 -4 -10 -10z"/>
<path d="M3435 530 c-28 -4 -35 -9 -24 -14 9 -4 32 0 50 8 37 16 34 17 -26 6z"/>
<path d="M3048 513 c6 -2 18 -2 25 0 6 3 1 5 -13 5 -14 0 -19 -2 -12 -5z"/>
<path d="M2465 490 c3 -5 8 -10 11 -10 2 0 4 5 4 10 0 6 -5 10 -11 10 -5 0 -7
-4 -4 -10z"/>
<path d="M1590 480 c0 -5 4 -10 9 -10 6 0 13 5 16 10 3 6 -1 10 -9 10 -9 0
-16 -4 -16 -10z"/>
<path d="M2388 483 c7 -3 16 -2 19 1 4 3 -2 6 -13 5 -11 0 -14 -3 -6 -6z"/>
<path d="M570 460 c0 -5 -7 -10 -15 -10 -8 0 -15 -4 -15 -10 0 -5 9 -10 20
-10 13 0 20 7 20 20 0 11 -2 20 -5 20 -3 0 -5 -4 -5 -10z"/>
<path d="M1395 453 c-22 -3 -44 -9 -49 -14 -15 -14 104 -10 144 6 l35 13 -45
0 c-25 -1 -63 -3 -85 -5z"/>
<path d="M2950 450 c0 -5 4 -10 9 -10 6 0 13 5 16 10 3 6 -1 10 -9 10 -9 0
-16 -4 -16 -10z"/>
<path d="M28 443 c6 -2 18 -2 25 0 6 3 1 5 -13 5 -14 0 -19 -2 -12 -5z"/>
<path d="M488 443 c7 -3 16 -2 19 1 4 3 -2 6 -13 5 -11 0 -14 -3 -6 -6z"/>
<path d="M789 409 l-24 -21 25 6 c14 3 28 6 33 6 10 0 9 30 -2 30 -5 0 -19 -9
-32 -21z"/>
<path d="M913 420 c-26 -10 -31 -30 -8 -30 23 0 65 22 59 31 -6 11 -22 10 -51
-1z"/>
<path d="M2950 419 c0 -8 51 -22 57 -15 3 2 2 9 -1 15 -7 11 -56 11 -56 0z"/>
<path d="M615 394 l-30 -13 38 -1 c20 0 37 4 37 9 0 17 -14 19 -45 5z"/>
<path d="M1307 403 c-4 -3 -7 -11 -7 -17 0 -6 5 -5 12 2 6 6 9 14 7 17 -3 3
-9 2 -12 -2z"/>
<path d="M3200 406 c0 -9 30 -14 35 -6 4 6 -3 10 -14 10 -12 0 -21 -2 -21 -4z"/>
<path d="M224 389 c-3 -6 -2 -14 2 -19 12 -11 104 -17 104 -8 0 5 -6 8 -14 8
-7 0 -19 7 -26 15 -14 17 -56 20 -66 4z"/>
<path d="M540 380 c-12 -8 -11 -10 7 -10 12 0 25 5 28 10 8 13 -15 13 -35 0z"/>
<path d="M705 380 c-3 -5 -2 -10 4 -10 5 0 13 5 16 10 3 6 2 10 -4 10 -5 0
-13 -4 -16 -10z"/>
<path d="M70 370 c0 -5 7 -10 15 -10 8 0 15 5 15 10 0 6 -7 10 -15 10 -8 0
-15 -4 -15 -10z"/>
<path d="M1350 370 c0 -13 11 -13 30 0 12 8 11 10 -7 10 -13 0 -23 -4 -23 -10z"/>
<path d="M1672 370 c4 -13 68 -43 68 -32 -1 17 -17 31 -44 38 -21 5 -27 3 -24
-6z"/>
<path d="M3105 370 c-3 -5 1 -10 9 -10 8 0 18 5 21 10 3 6 -1 10 -9 10 -8 0
-18 -4 -21 -10z"/>
<path d="M3068 363 c7 -3 16 -2 19 1 4 3 -2 6 -13 5 -11 0 -14 -3 -6 -6z"/>
<path d="M578 323 c7 -3 16 -2 19 1 4 3 -2 6 -13 5 -11 0 -14 -3 -6 -6z"/>
<path d="M106 272 c-6 -10 80 -9 90 1 4 4 -13 7 -39 7 -25 0 -48 -3 -51 -8z"/>
<path d="M125 240 c-3 -5 -1 -10 4 -10 6 0 11 5 11 10 0 6 -2 10 -4 10 -3 0
-8 -4 -11 -10z"/>
<path d="M315 240 c3 -5 8 -10 11 -10 2 0 4 5 4 10 0 6 -5 10 -11 10 -5 0 -7
-4 -4 -10z"/>
<path d="M257 202 c-10 -11 -14 -23 -9 -26 12 -7 35 19 30 34 -2 7 -11 3 -21
-8z"/>
<path d="M320 190 c0 -5 11 -10 25 -10 14 0 25 5 25 10 0 6 -11 10 -25 10 -14
0 -25 -4 -25 -10z"/>
<path d="M457 184 c-8 -14 8 -37 22 -33 8 3 8 10 -2 23 -8 11 -17 15 -20 10z"/>
<path d="M619 174 c-11 -14 -10 -16 9 -12 13 1 23 7 23 13 1 17 -17 16 -32 -1z"/>
<path d="M360 154 c0 -15 26 -19 34 -5 3 5 -3 11 -14 14 -13 3 -20 0 -20 -9z"/>
<path d="M260 141 c0 -12 6 -21 16 -21 9 0 14 7 12 17 -5 25 -28 28 -28 4z"/>
<path d="M40 99 c0 -5 5 -7 10 -4 6 3 10 8 10 11 0 2 -4 4 -10 4 -5 0 -10 -5
-10 -11z"/>
<path d="M775 90 c-3 -5 1 -10 10 -10 9 0 13 5 10 10 -3 6 -8 10 -10 10 -2 0
-7 -4 -10 -10z"/>
</g>
</svg>
